<svg version="1.0" xmlns="http://www.w3.org/2000/svg" width="933.333" height="933.333" viewBox="0 0 700 700"><path d="M325 66.1c-3.6.4-8.5 1.1-11 1.4-2.5.3-5.2.8-6 1-.8.3-3.1.7-5 .9-11.4 1.6-37 8.6-49 13.4-1.4.5-4.5 1.8-7 2.8-13.8 5.5-41 19.5-41.8 21.6-.2.4-.8.8-1.3.8-2.7 0-30.5 20.9-41.6 31.3-8.3 7.7-20.7 20.8-25.8 27.2-1.6 2.1-4.2 5.2-5.6 6.9-12.2 14.7-30.1 45.5-38.4 66.1-1.5 3.8-3.3 8.3-4 10-4.4 10.5-12.6 42.5-14 55-.4 3.3-.9 6.3-1.1 6.6-.8 1.3-1.8 21-1.8 35.9 0 16.1 1.1 32.9 2.9 42 .3 1.4.8 4.3 1.1 6.5.7 5.2 4 19.5 5.9 26.5.9 3 1.7 6 1.9 6.7.1.7.5 1.6.9 1.9.4.4.7 1.5.7 2.5 0 2.7 7.9 22.7 14.3 36 32.1 67.6 94.3 122.3 165.2 145.2 10.9 3.5 24.4 7.2 29.7 8.1 1.5.3 6.3 1.1 10.5 2 14.7 2.8 28.5 4 48.3 4 14.3 0 31.7-.9 36.5-1.9 1.1-.3 3.7-.7 5.8-1 9.5-1.3 12.1-1.8 25.7-5.2 14-3.4 33.2-9.8 43.5-14.4 2.8-1.3 5.2-2.4 5.5-2.4.7-.1 17.8-8.8 22.5-11.5 4.5-2.5 22.7-14.1 23.5-15 .3-.3 3.9-3 8-6.1 12.1-9.1 13.8-10.7 28-24.9 18.3-18.3 25.8-27.5 39.2-48 4.4-6.8 20.9-37.3 20.7-38.3-.1-.2 1.4-3.9 3.7-9.3 6.3-14.5 14.4-46 17-65.4.3-2.5.9-7.2 1.4-10.5.9-6.4.6-52.6-.4-58.5-.3-1.9-.8-5.5-1.1-8-1-7.7-1.7-11.6-2.9-17-2.8-13.1-5.2-22.2-8.3-31.5-26.9-82.5-90.2-148-172.3-178-15.8-5.8-41-12-57.5-14.1-2.2-.3-5.3-.7-7-1-5.2-1-52.7-1.2-59.5-.3z"/></svg>